<svg width="16" height="16" viewBox="0 0 16 16" fill="none" xmlns="http://www.w3.org/2000/svg">
<path fill-rule="evenodd" clip-rule="evenodd" d="M7.23774 5.55844C7.58314 5.09297 7.707 4.6024 7.31636 4.16938C6.43972 2.94272 5.85016 2.18417 5.48036 1.81886C4.77732 1.12437 3.62081 1.21831 3.01192 1.81827C2.68488 2.14051 2.57417 2.25117 2.23837 2.59224C0.367938 4.46368 1.50863 8.41984 4.54099 11.4552C7.57266 14.4898 11.5284 15.6311 13.4028 13.7557C13.7127 13.457 13.975 13.1945 14.1819 12.9758C14.7786 12.3452 14.8692 11.2396 14.178 10.5215C13.8236 10.1532 13.1003 9.59215 11.822 8.67779C11.4305 8.32772 10.9663 8.4036 10.5408 8.6828C10.336 8.8171 10.1871 8.95296 9.90576 9.23454L9.39493 9.74566C9.32765 9.81297 8.41405 9.35544 7.5272 8.46773C6.63987 7.57952 6.18266 6.66588 6.24963 6.59892L6.76081 6.08745C6.85006 5.99811 6.89273 5.95486 6.94745 5.89735C7.06145 5.77753 7.15585 5.6688 7.23774 5.55844ZM10.3372 10.6885L10.8481 10.1773C11.003 10.0223 11.1033 9.92706 11.1849 9.86136C12.3047 10.6655 12.9532 11.1711 13.2181 11.4464C13.3771 11.6116 13.3524 11.9131 13.2142 12.0593C13.0228 12.2615 12.7743 12.5102 12.4692 12.8044C11.2572 14.017 8.06399 13.0957 5.48348 10.5126C2.90216 7.92878 1.98132 4.73509 3.18419 3.53156C3.51863 3.19188 3.62459 3.08598 3.94696 2.76834C4.06783 2.64924 4.39707 2.62249 4.54411 2.76774C4.82882 3.04899 5.35695 3.72523 6.13387 4.80745C6.09365 4.85739 6.04341 4.91381 5.98228 4.97806C5.93741 5.02522 5.90003 5.06311 5.81831 5.14491L5.30763 5.65587C4.43887 6.52456 5.17874 8.00304 6.58471 9.41039C7.98971 10.8168 9.46874 11.5575 10.3372 10.6885Z" fill="white"/>
</svg>
