<svg width="0" height="0" class="hidden">
  <symbol fill="none" xmlns="http://www.w3.org/2000/svg" viewBox="0 0 20 20" class="svg-icon-name" id="name" >
    <path fill-rule="evenodd" clip-rule="evenodd" d="M9.99998 19.1668C4.93737 19.1668 0.833313 15.0628 0.833313 10.0002C0.833313 4.93755 4.93737 0.833496 9.99998 0.833496C15.0626 0.833496 19.1666 4.93755 19.1666 10.0002C19.1666 15.0628 15.0626 19.1668 9.99998 19.1668ZM16.1662 14.2707C17.0072 13.0588 17.5 11.587 17.5 10.0002C17.5 5.85803 14.1421 2.50016 9.99998 2.50016C5.85784 2.50016 2.49998 5.85803 2.49998 10.0002C2.49998 11.587 2.9928 13.0588 3.83373 14.2707C4.77161 13.0319 6.97548 12.5002 9.99998 12.5002C13.0245 12.5002 15.2284 13.0319 16.1662 14.2707ZM14.9705 15.6166C14.7266 14.7396 12.9745 14.1668 9.99998 14.1668C7.02549 14.1668 5.27331 14.7396 5.02941 15.6166C6.35273 16.7886 8.09326 17.5002 9.99998 17.5002C11.9067 17.5002 13.6472 16.7886 14.9705 15.6166ZM9.99998 5.00016C7.98256 5.00016 6.66665 6.4633 6.66665 8.3335C6.66665 11.1896 8.13403 12.5002 9.99998 12.5002C11.8484 12.5002 13.3333 11.2332 13.3333 8.50016C13.3333 6.60148 12.0118 5.00016 9.99998 5.00016ZM8.33331 8.3335C8.33331 10.2245 9.01515 10.8335 9.99998 10.8335C10.9814 10.8335 11.6666 10.2488 11.6666 8.50016C11.6666 7.45884 11.013 6.66683 9.99998 6.66683C8.94476 6.66683 8.33331 7.34668 8.33331 8.3335Z"></path>
  </symbol>
    <symbol fill="none" xmlns="http://www.w3.org/2000/svg" viewBox="0 0 20 20" class="svg-icon-email" id="email">
    <path fill-rule="evenodd" clip-rule="evenodd" d="M2.49998 2.5H17.5C18.4205 2.5 19.1666 3.24619 19.1666 4.16667V15.8333C19.1666 16.7538 18.4205 17.5 17.5 17.5H2.49998C1.5795 17.5 0.833313 16.7538 0.833313 15.8333V4.16667C0.833313 3.24619 1.5795 2.5 2.49998 2.5ZM2.49998 8.01508V15.8333H17.5V8.01544L9.99996 11.7654L2.49998 8.01508ZM2.49998 6.15166L10 9.90204L17.5 6.15205V4.16667H2.49998V6.15166Z" fill="" fill-opacity=""></path>
  </symbol>
    <symbol fill="none" xmlns="http://www.w3.org/2000/svg" viewBox="0 0 20 20" class="svg-icon-tel" id="tel">
    <path fill-rule="evenodd" clip-rule="evenodd" d="M9.04716 6.94841C9.47891 6.36657 9.63373 5.75336 9.14543 5.21209C8.04963 3.67877 7.31268 2.73057 6.85043 2.27394C5.97163 1.40583 4.52599 1.52326 3.76489 2.2732C3.35609 2.676 3.2177 2.81433 2.79795 3.24067C0.459907 5.57997 1.88577 10.5252 5.67622 14.3193C9.46581 18.1127 14.4105 19.5393 16.7535 17.195C17.1408 16.8216 17.4688 16.4935 17.7274 16.2201C18.4733 15.4318 18.5865 14.0499 17.7225 13.1522C17.2795 12.6919 16.3753 11.9905 14.7775 10.8476C14.2881 10.41 13.7079 10.5049 13.1759 10.8539C12.92 11.0217 12.7338 11.1916 12.3822 11.5435L11.7436 12.1824C11.6595 12.2666 10.5175 11.6947 9.40899 10.585C8.29983 9.47477 7.72831 8.33271 7.81202 8.24901L8.45099 7.60968C8.56256 7.49801 8.61589 7.44394 8.68429 7.37205C8.8268 7.22228 8.94479 7.08636 9.04716 6.94841ZM12.9215 13.361L13.5602 12.722C13.7537 12.5282 13.8791 12.4091 13.9811 12.327C15.3809 13.3322 16.1915 13.9642 16.5226 14.3083C16.7214 14.5148 16.6905 14.8917 16.5177 15.0744C16.2785 15.3272 15.9678 15.6381 15.5865 16.0059C14.0715 17.5215 10.08 16.3699 6.85434 13.1411C3.62768 9.91129 2.47663 5.91919 3.98022 4.41476C4.39828 3.99018 4.53073 3.85779 4.93369 3.46074C5.08478 3.31187 5.49633 3.27844 5.68012 3.46C6.03601 3.81156 6.69618 4.65685 7.66732 6.00963C7.61704 6.07205 7.55425 6.14259 7.47784 6.2229C7.42175 6.28184 7.37503 6.32921 7.27288 6.43146L6.63453 7.07016C5.54857 8.15602 6.47341 10.0041 8.23087 11.7633C9.98713 13.5213 11.8359 14.4472 12.9215 13.361Z" fill="" fill-opacity=""></path>
  </symbol>

</svg>