<svg width="0" height="0" class="">
  <symbol fill="none" xmlns="http://www.w3.org/2000/svg" viewBox="0 0 52 52" id="vk">
    <circle cx="22" cy="22" r="21" stroke="white" stroke-opacity="0.1" stroke-width="2"></circle>
    <g clip-path="url(#clip0_393_1658)">
      <path d="M26.6171 22.5995C26.3908 22.3137 26.4555 22.1865 26.6171 21.931C26.62 21.9281 28.4884 19.3463 28.6809 18.4707L28.6821 18.4701C28.7778 18.151 28.6821 17.9165 28.2195 17.9165H26.6888C26.2992 17.9165 26.1195 18.1178 26.0233 18.3429C26.0233 18.3429 25.2439 20.2084 24.1414 21.4177C23.7856 21.7671 23.6211 21.8791 23.4268 21.8791C23.3312 21.8791 23.1824 21.7671 23.1824 21.448V18.4701C23.1824 18.0874 23.0733 17.9165 22.7508 17.9165H20.3439C20.0995 17.9165 19.9543 18.095 19.9543 18.2613C19.9543 18.6241 20.5055 18.7075 20.5627 19.7283V21.9433C20.5627 22.4286 20.4746 22.5178 20.2792 22.5178C19.7588 22.5178 18.4959 20.6448 17.7475 18.501C17.5964 18.0851 17.4488 17.9171 17.0563 17.9171H15.525C15.0881 17.9171 15 18.1183 15 18.3435C15 18.7413 15.5203 20.7194 17.4197 23.3328C18.6855 25.1166 20.4682 26.0832 22.0898 26.0832C23.0646 26.0832 23.1836 25.8685 23.1836 25.4993C23.1836 23.7948 23.0955 23.6338 23.5838 23.6338C23.8101 23.6338 24.1997 23.7458 25.1098 24.6062C26.1498 25.6264 26.3208 26.0832 26.9029 26.0832H28.4336C28.8699 26.0832 29.091 25.8685 28.9638 25.445C28.6728 24.5543 26.7058 22.722 26.6171 22.5995Z" fill="var(--myColor1)" fill-opacity="var(--myColor2)"></path>
    </g>
    <defs>
      <clipPath id="clip0_393_1658">
        <rect width="14" height="14" fill="white" transform="translate(15 15)"></rect>
      </clipPath>
    </defs>
  </symbol>
   <symbol fill="none" xmlns="http://www.w3.org/2000/svg" viewBox="0 0 52 52" id="fb">
    <circle cx="22" cy="22" r="21" stroke="white" stroke-opacity="0.1" stroke-width="2"></circle>
    <path d="M25.4993 15.0029L23.6839 15C21.6443 15 20.3262 16.3523 20.3262 18.4454V20.0339H18.5008C18.3431 20.0339 18.2153 20.1618 18.2153 20.3195V22.6212C18.2153 22.7789 18.3432 22.9066 18.5008 22.9066H20.3262V28.7144C20.3262 28.8721 20.4539 28.9999 20.6116 28.9999H22.9932C23.151 28.9999 23.2787 28.872 23.2787 28.7144V22.9066H25.413C25.5707 22.9066 25.6984 22.7789 25.6984 22.6212L25.6993 20.3195C25.6993 20.2438 25.6692 20.1713 25.6157 20.1177C25.5623 20.0641 25.4894 20.0339 25.4137 20.0339H23.2787V18.6873C23.2787 18.0401 23.4329 17.7115 24.2761 17.7115L25.499 17.711C25.6566 17.711 25.7844 17.5832 25.7844 17.4256V15.2884C25.7844 15.1309 25.6568 15.0032 25.4993 15.0029Z" fill="var(--myColor1)" fill-opacity="var(--myColor2)"></path>
  </symbol>
  
    <symbol fill="none" xmlns="http://www.w3.org/2000/svg" viewBox="0 0 52 52" id="insta">
    <circle cx="22" cy="22" r="21" stroke="white" stroke-opacity="0.1" stroke-width="2"></circle>
    <path d="M25.2103 15H18.7897C16.7 15 15 16.7 15 18.7897V25.2104C15 27.3 16.7 29 18.7897 29H25.2104C27.3 29 29 27.3 29 25.2104V18.7897C29 16.7 27.3 15 25.2103 15V15ZM22 25.828C19.8892 25.828 18.172 24.1108 18.172 22C18.172 19.8892 19.8892 18.172 22 18.172C24.1108 18.172 25.828 19.8892 25.828 22C25.828 24.1108 24.1108 25.828 22 25.828ZM25.9195 19.0747C25.2958 19.0747 24.7884 18.5674 24.7884 17.9436C24.7884 17.3198 25.2958 16.8124 25.9195 16.8124C26.5433 16.8124 27.0508 17.3198 27.0508 17.9436C27.0508 18.5674 26.5433 19.0747 25.9195 19.0747Z" fill="var(--myColor1)" fill-opacity="var(--myColor2)"></path>
    <path d="M21.9999 18.9927C20.3418 18.9927 18.9927 20.3417 18.9927 21.9999C18.9927 23.6581 20.3418 25.0072 21.9999 25.0072C23.6582 25.0072 25.0072 23.6581 25.0072 21.9999C25.0072 20.3417 23.6582 18.9927 21.9999 18.9927Z" fill="var(--myColor)" fill-opacity="0.3"></path>
    <path d="M25.9195 17.6333C25.7484 17.6333 25.6091 17.7726 25.6091 17.9437C25.6091 18.1148 25.7484 18.2541 25.9195 18.2541C26.0907 18.2541 26.23 18.1149 26.23 17.9437C26.23 17.7725 26.0907 17.6333 25.9195 17.6333Z" fill="var(--myColor1)" fill-opacity="var(--myColor2)"></path>
  </symbol>
  <symbol fill="none" xmlns="http://www.w3.org/2000/svg" viewBox="0 0 52 52" id="youtube">
    <!-- <g filter="url(#filter0_d_393_1643)"> -->
      <circle cx="26" cy="22" r="21" stroke="white" stroke-opacity="0.1" stroke-width="2"></circle>
      <g clip-path="url(#clip0_393_1643)">
        <path d="M32.6903 18.4584L32.7078 18.5728C32.5386 17.9725 32.0819 17.5093 31.5015 17.3408L31.4892 17.3378C30.3978 17.0415 26.0059 17.0415 26.0059 17.0415C26.0059 17.0415 21.625 17.0357 20.5225 17.3378C19.931 17.5093 19.4737 17.9725 19.3075 18.5605L19.3045 18.5728C18.8968 20.7025 18.8939 23.2616 19.3226 25.5419L19.3045 25.4264C19.4737 26.0266 19.9305 26.4898 20.5109 26.6584L20.5231 26.6613C21.6134 26.9582 26.0065 26.9582 26.0065 26.9582C26.0065 26.9582 30.3867 26.9582 31.4898 26.6613C32.0819 26.4898 32.5392 26.0266 32.7055 25.4386L32.7084 25.4264C32.8939 24.4359 33.0001 23.296 33.0001 22.1317C33.0001 22.0891 33.0001 22.0459 32.9995 22.0028C33.0001 21.9631 33.0001 21.9159 33.0001 21.8686C33.0001 20.7037 32.8939 19.5638 32.6903 18.4584ZM24.6047 24.1296V19.8753L28.2599 22.0057L24.6047 24.1296Z" fill="var(--myColor1)" fill-opacity="var(--myColor2)"></path>
      </g>
    <!-- </g> -->
    <defs>
      <filter id="filter0_d_393_1643" x="0" y="0" width="52" height="52" filterUnits="userSpaceOnUse" color-interpolation-filters="sRGB">
        <feFlood flood-opacity="0" result="BackgroundImageFix"></feFlood>
        <feColorMatrix in="SourceAlpha" type="matrix" values="0 0 0 0 0 0 0 0 0 0 0 0 0 0 0 0 0 0 127 0" result="hardAlpha"></feColorMatrix>
        <feOffset dy="4"></feOffset>
        <feGaussianBlur stdDeviation="2"></feGaussianBlur>
        <feComposite in2="hardAlpha" operator="out"></feComposite>
        <feColorMatrix type="matrix" values="0 0 0 0 0 0 0 0 0 0 0 0 0 0 0 0 0 0 0.25 0"></feColorMatrix>
        <feBlend mode="normal" in2="BackgroundImageFix" result="effect1_dropShadow_393_1643"></feBlend>
        <feBlend mode="normal" in="SourceGraphic" in2="effect1_dropShadow_393_1643" result="shape"></feBlend>
      </filter>
      <!-- <clipPath id="clip0_393_1643">
        <rect width="14" height="14" fill="white" transform="translate(19 15)"></rect>
      </clipPath> -->
    </defs>
  </symbol>

</svg>